<?xml version="1.0" encoding="utf-8"?>
<!-- Updated with gradient -->
<svg width="800px" height="800px" viewBox="0 0 32 32" version="1.1" xmlns="http://www.w3.org/2000/svg">
  <title>axe-swing</title>

  <!-- Gradient Definition -->
  <defs>
    <linearGradient id="axeGradient" x1="0%" y1="0%" x2="100%" y2="100%">
      <stop offset="0%" stop-color="#c2255c"/>  <!-- Pink -->
      <stop offset="100%" stop-color="#f08c00"/> <!-- Yellow -->
    </linearGradient>
  </defs>

  <!-- Axe Path with Gradient Applied -->
  <path d="M30.093 12.692c-1.774-6.829-7.85-11.274-14.417-11.067-5.525-0.33-11.117 2.011-14.511 6.444 1.63-1.388 3.567-2.394 5.631-2.968-3.891 3.356-5.914 8.693-4.979 14.080 0.068-1.766 0.488-3.479 1.206-5.041 0-0.001 0-0.001 0-0.002 0.072 3.219 1.154 6.384 3.263 8.961-2.401-4.803-1.4-12.225 2.622-15.115-0.045 0.032-0.089 0.065-0.133 0.099 0.729-0.373 1.504-0.677 2.321-0.903 6.692-1.849 13.557 2.267 15.352 9.165 1.148 4.415-0.069 8.9-2.847 12.043 0.169-0.191 0.331-0.386 0.488-0.587-3.353-0.632-3.327-3.939 0.875-7.183l-3.074-2.282c-0.123 0.361-0.253 0.699-0.39 1.014l-12.063-8.505c-1.168-0.674-1.907 0.703-0.984 1.297l12.272 8.652c-2.045 3.074-4.905 2.424-6.17-0.921-3.37 2.851-1.807 7.954 1.432 10.21 2.952 2.057 7.354 1.625 9.29-1.975 4.27-3.602 6.34-9.562 4.818-15.417zM16.088 1.655c0.015 0.001 0.031 0.003 0.046 0.004-0.015-0.001-0.031-0.003-0.046-0.004zM16.506 1.695c0.018 0.002 0.036 0.004 0.054 0.006-0.018-0.002-0.036-0.004-0.054-0.006zM16.943 1.748c0.011 0.001 0.021 0.003 0.032 0.004-0.011-0.002-0.022-0.003-0.032-0.004zM17.508 6.136c-0.090-0.047-0.18-0.092-0.271-0.137 0.091 0.045 0.181 0.090 0.271 0.137zM17.14 5.952c-0.066-0.032-0.131-0.063-0.197-0.093 0.066 0.031 0.131 0.062 0.197 0.093z" 
        fill="url(#axeGradient)"/>
</svg>
